# xmcd
# 
# Track frame offsets:
#     150
#     16118
#     36760
#     60655
#     73243
#     94958
#     115103
#     143863
#     161446
#     174033
#     194436
#     217628
#     234286
#     260373
#     277228
#     294063
#     308268
# 
# Disc length: 4378
# 
# Revision: 0
# Processed by: cddbd v1.5.2PL0 Copyright (c) Steve Scherf et al.
# Submitted via: fre:ac v1.0.17
# 
DISCID=de111811
DTITLE=Various Artist - Blues Guitar Master CD1
DYEAR=1997
DGENRE=Blues
TTITLE0=Hound Dog Taylor - Ain't got nobody
TTITLE1=John Lee Hooker - Boogie at Russian hill
TTITLE2=BB King/Robert Cray - Playin with my friends
TTITLE3=Albert King - Born under a bad sign
TTITLE4=Freddie King - Hide away
TTITLE5=Buddy Guy - Damm right, I've got the blues
TTITLE6=Luther Allison - Bad love
TTITLE7=Melvin Taylor - Depression blues
TTITLE8=Duke Robillard - Tell me why
TTITLE9=Jimmy Trackery - Trouble man
TTITLE10=Lucky Peterson - Compared to what
TTITLE11=Monster Mike Welch - These blues are mine
TTITLE12=Bill Perry - Down
TTITLE13=Popa Chubby - Palace of the king
TTITLE14=Michael Hill's Blues Mob - Lost in the sauce
TTITLE15=Eric Clapton - Draggin' my tail
TTITLE16=Rory Gallagher - Loanshark blues
EXTD=
EXTT0=
EXTT1=
EXTT2=
EXTT3=
EXTT4=
EXTT5=
EXTT6=
EXTT7=
EXTT8=
EXTT9=
EXTT10=
EXTT11=
EXTT12=
EXTT13=
EXTT14=
EXTT15=
EXTT16=
PLAYORDER=
